<svg xmlns="http://www.w3.org/2000/svg" fill="none" viewBox="0 0 24 24" class="stroke-current">
  <path stroke="#1a1a1a" stroke-linecap="round" stroke-linejoin="round" stroke-width="1.2" d="M3.067 17.601c0 .594.235 1.164.654 1.584a2.23 2.23 0 0 0 3.158 0c.42-.42.654-.99.654-1.584m-4.466 0c0-.594.235-1.164.654-1.584a2.23 2.23 0 0 1 3.158 0c.42.42.654.99.654 1.584m-4.466 0H.834V5.28A1.122 1.122 0 0 1 1.95 4.16h15.633c1.481 0 2.901.826 3.948 2.296 1.047 1.47 1.635 3.465 1.635 5.545M7.533 17.6h8.934m0 0c0 .594.235 1.164.654 1.584a2.23 2.23 0 0 0 3.158 0c.42-.42.654-.99.654-1.584m-4.466 0c0-.594.235-1.164.654-1.584a2.23 2.23 0 0 1 3.158 0c.42.42.654.99.654 1.584m0 0h2.234v-5.6m0 0h-5.025L16.467 4.16M.834 9.76h16.75M6.418 4.16v5.6M12 4.16v5.6"/>
</svg>
