<svg xmlns="http://www.w3.org/2000/svg" fill="none" viewBox="0 0 24 24">
   <path
      stroke="#10b981"
      stroke-linecap="round"
      stroke-linejoin="round"
      stroke-width="1.667"
      d="M16.114 18.385c0 .616.248 1.206.689 1.642.44.435 1.038.68 1.662.68.623 0 1.221-.245 1.662-.68.441-.436.689-1.026.689-1.642m-4.702 0c0-.616.248-1.206.689-1.642a2.366 2.366 0 0 1 1.662-.68c.624 0 1.221.245 1.662.68.441.436.689 1.026.689 1.642m-4.702 0H6.711m14.105 0h2.35V12.58M9.063 4.453h8.228c3.245 0 5.877 3.639 5.877 8.127m0 0h-5.29l-1.763-8.127m-7.64 5.805h8.816m-5.877-5.805v5.805m-8.228-1.16v12.77M.834 3.293c0-.308.124-.603.344-.82.22-.218.52-.34.831-.34H4.36c.312 0 .61.122.831.34.22.217.345.512.345.82v4.644c0 .308-.124.603-.345.821-.22.218-.52.34-.83.34H2.008c-.311 0-.61-.122-.83-.34a1.154 1.154 0 0 1-.345-.82z"
   />
</svg>