<svg xmlns="http://www.w3.org/2000/svg" fill="none" viewBox="0 0 24 24">
  <path
    stroke="#10b981"
    stroke-linecap="round"
    stroke-linejoin="round"
    stroke-width="1.667"
    d="M7.037 23.167v-1.241a2.481 2.481 0 0 1 2.482-2.482h4.962a2.482 2.482 0 0 1 2.482 2.482v1.24m1.24-13.647h2.482A2.481 2.481 0 0 1 23.167 12v1.24m-22.334 0V12a2.481 2.481 0 0 1 2.482-2.481h2.481M9.52 13.24a2.481 2.481 0 1 0 4.962 0 2.481 2.481 0 0 0-4.962 0zm6.203-9.926a2.482 2.482 0 1 0 4.963 0 2.482 2.482 0 0 0-4.963 0zm-12.407 0a2.482 2.482 0 1 0 4.963 0 2.482 2.482 0 0 0-4.963 0Z"
  />
</svg>
