<svg xmlns="http://www.w3.org/2000/svg" width="284" height="84" fill="none"><path fill="#fff" d="M273 1.68a8.821 8.821 0 0 1 8.82 8.82v63a8.82 8.82 0 0 1-8.82 8.82H10.5a8.82 8.82 0 0 1-8.82-8.82v-63a8.82 8.82 0 0 1 8.82-8.82H273ZM273 0H10.5C4.725 0 0 4.725 0 10.5v63C0 79.275 4.725 84 10.5 84H273c5.775 0 10.5-4.725 10.5-10.5v-63C283.5 4.725 278.775 0 273 0Z"/><path fill="#fff" stroke="#fff" stroke-miterlimit="10" stroke-width=".5" d="M99.582 21.504c0 1.764-.525 3.171-1.575 4.2-1.176 1.239-2.71 1.869-4.62 1.869-1.827 0-3.381-.63-4.641-1.89-1.26-1.26-1.89-2.835-1.89-4.683 0-1.848.63-3.423 1.89-4.683 1.26-1.26 2.814-1.911 4.64-1.911.925 0 1.807.168 2.626.483.819.336 1.49.798 2.016 1.386l-1.155 1.155a3.705 3.705 0 0 0-1.512-1.092 4.81 4.81 0 0 0-1.974-.399c-1.365 0-2.541.483-3.486 1.428-.945.966-1.407 2.163-1.407 3.612 0 1.449.462 2.646 1.407 3.612.945.945 2.1 1.428 3.486 1.428 1.26 0 2.289-.357 3.129-1.05.84-.693 1.323-1.68 1.449-2.898h-4.578v-1.512h6.11c.043.336.085.651.085.945Zm9.681-6.804v1.554h-5.733v3.99h5.166v1.512h-5.166v3.99h5.733V27.3h-7.35V14.7h7.35Zm6.825 1.554V27.3h-1.617V16.254h-3.528V14.7h8.652v1.554h-3.507ZM127.491 27.3h-1.617V14.7h1.617v12.6Zm7.182-11.046V27.3h-1.617V16.254h-3.528V14.7h8.652v1.554h-3.507ZM156.429 21c0 1.869-.63 3.423-1.869 4.683-1.26 1.26-2.793 1.89-4.62 1.89s-3.36-.63-4.62-1.89c-1.239-1.26-1.869-2.814-1.869-4.683 0-1.869.63-3.423 1.869-4.683 1.239-1.26 2.772-1.911 4.62-1.911 1.827 0 3.36.63 4.62 1.911 1.26 1.281 1.869 2.835 1.869 4.683Zm-11.298 0c0 1.449.462 2.667 1.365 3.612.924.945 2.079 1.428 3.444 1.428 1.365 0 2.52-.483 3.423-1.428.924-.945 1.386-2.142 1.386-3.612 0-1.47-.462-2.667-1.386-3.612-.924-.945-2.058-1.428-3.423-1.428-1.365 0-2.52.483-3.444 1.428-.903.945-1.365 2.163-1.365 3.612Zm15.183 6.3h-1.617V14.7h1.974l6.132 9.807h.063l-.063-2.436V14.7h1.617v12.6h-1.68l-6.405-10.269h-.063l.063 2.436V27.3h-.021Z"/><path fill="#fff" d="M143.094 45.675c-4.935 0-8.967 3.759-8.967 8.925 0 5.145 4.032 8.925 8.967 8.925 4.935 0 8.967-3.78 8.967-8.925 0-5.166-4.032-8.925-8.967-8.925Zm0 14.343c-2.709 0-5.04-2.226-5.04-5.418 0-3.213 2.331-5.418 5.04-5.418s5.04 2.205 5.04 5.418c0 3.192-2.352 5.418-5.04 5.418Zm-19.572-14.343c-4.935 0-8.967 3.759-8.967 8.925 0 5.145 4.032 8.925 8.967 8.925 4.935 0 8.967-3.78 8.967-8.925 0-5.166-4.032-8.925-8.967-8.925Zm0 14.343c-2.709 0-5.04-2.226-5.04-5.418 0-3.213 2.331-5.418 5.04-5.418s5.04 2.205 5.04 5.418c0 3.192-2.331 5.418-5.04 5.418Zm-23.268-11.592v3.78h9.072c-.273 2.12-.987 3.696-2.058 4.767-1.323 1.323-3.381 2.772-6.993 2.772-5.586 0-9.954-4.494-9.954-10.08s4.368-10.08 9.954-10.08c3.003 0 5.208 1.176 6.825 2.709l2.667-2.667c-2.268-2.163-5.271-3.822-9.513-3.822-7.644 0-14.07 6.216-14.07 13.88 0 7.645 6.426 13.882 14.07 13.882 4.137 0 7.245-1.344 9.681-3.885 2.499-2.5 3.276-6.027 3.276-8.862 0-.882-.063-1.701-.21-2.373h-12.747v-.021Zm95.151 2.94c-.735-1.995-3.003-5.691-7.644-5.691-4.599 0-8.421 3.612-8.421 8.925 0 4.998 3.78 8.925 8.862 8.925 4.095 0 6.468-2.5 7.434-3.948l-3.045-2.037c-1.008 1.49-2.394 2.478-4.389 2.478s-3.423-.903-4.326-2.71l11.949-4.934-.42-1.008Zm-12.18 2.982c-.105-3.444 2.667-5.208 4.662-5.208 1.554 0 2.877.777 3.318 1.89l-7.98 3.318ZM173.523 63h3.927V36.75h-3.927V63Zm-6.426-15.33h-.147c-.882-1.05-2.562-1.995-4.704-1.995-4.473 0-8.568 3.927-8.568 8.967 0 4.998 4.095 8.904 8.568 8.904 2.121 0 3.822-.945 4.704-2.037h.126v1.28c0 3.424-1.827 5.25-4.767 5.25-2.394 0-3.885-1.721-4.494-3.17l-3.423 1.428c.987 2.373 3.591 5.27 7.917 5.27 4.599 0 8.484-2.708 8.484-9.302V46.22h-3.717v1.449h.021Zm-4.515 12.348c-2.709 0-4.977-2.268-4.977-5.376 0-3.15 2.268-5.44 4.977-5.44 2.667 0 4.767 2.31 4.767 5.44.021 3.108-2.079 5.376-4.767 5.376Zm51.219-23.268h-9.387V63h3.927v-9.954h5.481c4.347 0 8.61-3.15 8.61-8.148-.021-4.998-4.305-8.148-8.631-8.148Zm.084 12.642h-5.565v-9.01h5.565c2.94 0 4.599 2.437 4.599 4.495 0 2.058-1.659 4.515-4.599 4.515Zm24.234-3.76c-2.835 0-5.775 1.26-6.993 4.012l3.486 1.449c.735-1.45 2.121-1.932 3.57-1.932 2.016 0 4.095 1.218 4.116 3.38v.274c-.714-.4-2.226-1.008-4.095-1.008-3.759 0-7.56 2.058-7.56 5.9 0 3.508 3.066 5.776 6.51 5.776 2.625 0 4.095-1.176 4.998-2.562h.126v2.016h3.78v-10.06c.021-4.64-3.465-7.244-7.938-7.244Zm-.483 14.386c-1.281 0-3.066-.651-3.066-2.226 0-2.016 2.226-2.793 4.158-2.793 1.722 0 2.541.378 3.57.882a4.738 4.738 0 0 1-4.662 4.137ZM259.854 46.2l-4.494 11.382h-.126L250.572 46.2h-4.221l6.993 15.918-3.99 8.84h4.095L264.222 46.2h-4.368ZM224.574 63h3.927V36.75h-3.927V63Z"/><path fill="#4285F4" d="M21.147 19.488a6.305 6.305 0 0 0-.21 1.553V62.98c0 .546.063 1.05.21 1.553l23.121-23.12-23.121-21.924Z"/><path fill="#EA4335" d="m43.512 40.782-22.365 23.73v.021a6.042 6.042 0 0 0 8.904 3.633l.063-.042 25.158-14.511-11.76-12.831Z"/><path fill="#FBBC04" d="m66.129 36.75-.021-.022-10.857-6.3-12.243 10.9 12.285 12.284 10.815-6.236a6.048 6.048 0 0 0 .02-10.627Z"/><path fill="#34A853" d="m43.68 42 11.571-11.572-25.137-14.574a6.066 6.066 0 0 0-8.967 3.613L43.68 41.998Z"/></svg>