<svg xmlns="http://www.w3.org/2000/svg" fill="none" viewBox="0 0 24 24">
  <path fill="#10B981" d="M3.833 10.833a2.333 2.333 0 0 1 2.334 2.334V15.5h11.666v-2.333a2.333 2.333 0 1 1 4.667 0v4.666a2.333 2.333 0 0 1-2.333 2.334H3.833A2.333 2.333 0 0 1 1.5 17.833v-4.666a2.333 2.333 0 0 1 2.333-2.334Z"/>
  <path fill="#10B981" d="M3.833 10.833V5a3.5 3.5 0 0 1 3.5-3.5h9.334a3.5 3.5 0 0 1 3.5 3.5v5.833M5 20.167V22.5v-2.333ZM19 20.167V22.5v-2.333Z"/>
  <path stroke="#10B981" stroke-linecap="round" stroke-linejoin="round" stroke-width="2" d="M3.833 10.833a2.333 2.333 0 0 1 2.334 2.334V15.5h11.666v-2.333a2.333 2.333 0 0 1 2.334-2.334m-16.334 0A2.333 2.333 0 0 0 1.5 13.167v4.666a2.333 2.333 0 0 0 2.333 2.334h16.334a2.333 2.333 0 0 0 2.333-2.334v-4.666a2.333 2.333 0 0 0-2.333-2.334m-16.334 0V5a3.5 3.5 0 0 1 3.5-3.5h9.334a3.5 3.5 0 0 1 3.5 3.5v5.833M5 20.167V22.5m14-2.333V22.5"/>
</svg>