<svg xmlns="http://www.w3.org/2000/svg" fill="none" viewBox="0 0 24 24">
  <path stroke="#030712" stroke-linecap="round" stroke-linejoin="round" stroke-opacity=".5" stroke-width="2" d="M3.444 10.778a2.444 2.444 0 0 1 2.445 2.445v2.444H18.11v-2.444a2.444 2.444 0 0 1 2.444-2.445m-17.11 0A2.444 2.444 0 0 0 1 13.223v4.888a2.444 2.444 0 0 0 2.444 2.445h17.111A2.445 2.445 0 0 0 23 18.11v-4.888a2.444 2.444 0 0 0-2.445-2.445m-17.11 0V4.667A3.667 3.667 0 0 1 7.11 1h9.778a3.666 3.666 0 0 1 3.666 3.667v6.111M4.666 20.556V23m14.667-2.444V23"/>
</svg>
