<svg xmlns="http://www.w3.org/2000/svg" fill="none" viewBox="0 0 24 24.5">
  <path fill="#10b981" d="M18 1.858A12 12 0 1 1 0 12.25l.006-.389A12 12 0 0 1 18 1.858zm-7.453 5.26a2.4 2.4 0 0 0-3.22-1.073l-.663.332a1.2 1.2 0 0 0 1.072 2.146L8.4 8.19 8.399 9.85H7.2a1.2 1.2 0 0 0-1.192 1.06L6 11.05a1.2 1.2 0 0 0 1.2 1.2h1.199l.001 3.6a3.6 3.6 0 0 0 3.389 3.594l.211.006h.6a4.2 4.2 0 0 0 4.2-4.2v-.6a1.2 1.2 0 0 0-1.2-1.2h-1.2a1.2 1.2 0 0 0-1.2 1.2l.008.14a1.2 1.2 0 0 0 1.052 1.051l.038.003-.024.068A1.8 1.8 0 0 1 12.6 17.05H12a1.2 1.2 0 0 1-1.2-1.2l-.001-3.6H15.6a1.2 1.2 0 0 0 1.192-1.06l.008-.14a1.2 1.2 0 0 0-1.2-1.2h-4.801L10.8 8.19a2.4 2.4 0 0 0-.163-.87z"/>
</svg>
