<svg xmlns="http://www.w3.org/2000/svg" fill="none" viewBox="0 0 24 24">
   <path 
      stroke="#10b981"
      stroke-linecap="round"
      stroke-linejoin="round"
      stroke-width="1.667"
      d="M15.722 3.556V5.97m0 4.825v2.412m0 4.825v2.412M3.315 3.557h17.37c.658 0 1.29.255 1.755.707.465.452.727 1.066.727 1.706v3.618c-.659 0-1.29.255-1.755.707a2.379 2.379 0 0 0-.727 1.706c0 .64.261 1.253.727 1.706a2.518 2.518 0 0 0 1.755.706v3.619c0 .64-.262 1.253-.727 1.706a2.518 2.518 0 0 1-1.755.706H3.315c-.658 0-1.29-.254-1.755-.706a2.379 2.379 0 0 1-.726-1.706v-3.619c.658 0 1.289-.254 1.754-.706A2.379 2.379 0 0 0 3.315 12c0-.64-.261-1.254-.727-1.706a2.518 2.518 0 0 0-1.754-.707V5.97c0-.64.26-1.254.726-1.706a2.518 2.518 0 0 1 1.755-.707z"
   />
</svg>